<svg width="32" height="21" viewBox="0 0 32 21" fill="none" xmlns="http://www.w3.org/2000/svg">
<path d="M1.63474 4.84615C1.17156 4.84615 0.783585 4.69108 0.470805 4.38092C0.156935 4.07185 0 3.68846 0 3.23077C0 2.77308 0.156935 2.38915 0.470805 2.079C0.783585 1.76992 1.17156 1.61538 1.63474 1.61538H6.53895C7.00213 1.61538 7.39065 1.76992 7.70452 2.079C8.0173 2.38915 8.17369 2.77308 8.17369 3.23077C8.17369 3.68846 8.0173 4.07185 7.70452 4.38092C7.39065 4.69108 7.00213 4.84615 6.53895 4.84615H1.63474ZM1.63474 12.9231C1.17156 12.9231 0.783585 12.768 0.470805 12.4578C0.156935 12.1488 0 11.7654 0 11.3077C0 10.85 0.156935 10.4661 0.470805 10.1559C0.783585 9.84685 1.17156 9.69231 1.63474 9.69231H6.53895C7.00213 9.69231 7.39065 9.84685 7.70452 10.1559C8.0173 10.4661 8.17369 10.85 8.17369 11.3077C8.17369 11.7654 8.0173 12.1488 7.70452 12.4578C7.39065 12.768 7.00213 12.9231 6.53895 12.9231H1.63474ZM29.2618 19.8692L24.1124 14.7808C23.4585 15.2385 22.7436 15.5815 21.9676 15.8098C21.1906 16.0392 20.407 16.1538 19.6169 16.1538C17.3555 16.1538 15.4281 15.3661 13.8348 13.7905C12.2404 12.2161 11.4432 10.3115 11.4432 8.07692C11.4432 5.84231 12.2404 3.93723 13.8348 2.36169C15.4281 0.787231 17.3555 0 19.6169 0C21.8782 0 23.8061 0.787231 25.4006 2.36169C26.9939 3.93723 27.7905 5.84231 27.7905 8.07692C27.7905 8.85769 27.675 9.632 27.444 10.3998C27.2119 11.1666 26.8642 11.8731 26.401 12.5192L31.5504 17.6077C31.8501 17.9038 32 18.2808 32 18.7385C32 19.1962 31.8501 19.5731 31.5504 19.8692C31.2507 20.1654 30.8693 20.3135 30.4061 20.3135C29.943 20.3135 29.5615 20.1654 29.2618 19.8692ZM19.6169 12.9231C20.9791 12.9231 22.1371 12.4519 23.0907 11.5096C24.0443 10.5673 24.5211 9.42308 24.5211 8.07692C24.5211 6.73077 24.0443 5.58654 23.0907 4.64423C22.1371 3.70192 20.9791 3.23077 19.6169 3.23077C18.2546 3.23077 17.0966 3.70192 16.143 4.64423C15.1894 5.58654 14.7126 6.73077 14.7126 8.07692C14.7126 9.42308 15.1894 10.5673 16.143 11.5096C17.0966 12.4519 18.2546 12.9231 19.6169 12.9231ZM1.63474 21C1.17156 21 0.783585 20.8449 0.470805 20.5348C0.156935 20.2257 0 19.8423 0 19.3846C0 18.9269 0.156935 18.5435 0.470805 18.2345C0.783585 17.9243 1.17156 17.7692 1.63474 17.7692H14.7126C15.1758 17.7692 15.5643 17.9243 15.8782 18.2345C16.191 18.5435 16.3474 18.9269 16.3474 19.3846C16.3474 19.8423 16.191 20.2257 15.8782 20.5348C15.5643 20.8449 15.1758 21 14.7126 21H1.63474Z" fill="#898989"/>
</svg>
