<svg width="32" height="32" viewBox="0 0 32 32" fill="none" xmlns="http://www.w3.org/2000/svg">
<path d="M29 13H19V3C19 2.20435 18.6839 1.44129 18.1213 0.87868C17.5587 0.316071 16.7956 0 16 0C15.2044 0 14.4413 0.316071 13.8787 0.87868C13.3161 1.44129 13 2.20435 13 3V13H3C2.20435 13 1.44129 13.3161 0.87868 13.8787C0.316071 14.4413 0 15.2044 0 16C0 16.7956 0.316071 17.5587 0.87868 18.1213C1.44129 18.6839 2.20435 19 3 19H13V29C13 29.7956 13.3161 30.5587 13.8787 31.1213C14.4413 31.6839 15.2044 32 16 32C16.7956 32 17.5587 31.6839 18.1213 31.1213C18.6839 30.5587 19 29.7956 19 29V19H29C29.7956 19 30.5587 18.6839 31.1213 18.1213C31.6839 17.5587 32 16.7956 32 16C32 15.2044 31.6839 14.4413 31.1213 13.8787C30.5587 13.3161 29.7956 13 29 13Z" fill="white"/>
</svg>
